<svg xmlns="http://www.w3.org/2000/svg" x="0px" y="0px" width="50" height="50" viewBox="0 0 100 100">
<path fill="#0056d3" d="M78.57,83.611c-0.929,0-1.681-0.752-1.681-1.68v-6.722c0-0.928,0.752-1.681,1.681-1.681 c0.928,0,1.68,0.752,1.68,1.681v6.722C80.25,82.858,79.498,83.611,78.57,83.611z"></path><path fill="#0056d3" d="M41.597,83.611c-0.929,0-1.68-0.752-1.68-1.68v-5.042h-3.361c-0.929,0-1.681-0.752-1.681-1.68 c0-0.928,0.752-1.681,1.681-1.681h5.041c0.929,0,1.681,0.752,1.681,1.681v6.722C43.278,82.858,42.526,83.611,41.597,83.611z"></path><path fill="#0056d3" d="M16.389,83.611c-0.929,0-1.681-0.752-1.681-1.68v-6.722c0-0.928,0.752-1.681,1.681-1.681h5.042 c0.929,0,1.68,0.752,1.68,1.681c0,0.928-0.751,1.68-1.68,1.68H18.07v5.042C18.07,82.858,17.318,83.611,16.389,83.611z"></path><path fill="#0056d3" d="M66.806,56.722c-0.929,0-1.681-0.752-1.681-1.68v-6.722H36.556v6.722 c0,0.928-0.752,1.68-1.681,1.68s-1.68-0.752-1.68-1.68v-8.403c0-0.928,0.751-1.68,1.68-1.68h31.931c0.929,0,1.68,0.752,1.68,1.68 v8.403C68.486,55.969,67.735,56.722,66.806,56.722z"></path><path fill="#0056d3" d="M78.57,70.167c-0.929,0-1.681-0.752-1.681-1.681v-5.041h-1.681c-0.929,0-1.68-0.752-1.68-1.681 c0-0.928,0.751-1.68,1.68-1.68h3.362c0.928,0,1.68,0.752,1.68,1.68v6.722C80.25,69.414,79.498,70.167,78.57,70.167z"></path><path fill="#0056d3" d="M55.042,70.167c-0.929,0-1.681-0.752-1.681-1.681v-6.722c0-0.928,0.752-1.68,1.681-1.68h3.361 c0.929,0,1.68,0.752,1.68,1.68c0,0.928-0.751,1.681-1.68,1.681h-1.681v5.041C56.722,69.414,55.971,70.167,55.042,70.167z"></path><path fill="#0056d3" d="M28.153,70.167c-0.929,0-1.681-0.752-1.681-1.681v-6.722c0-0.928,0.752-1.68,1.681-1.68 c0.929,0,1.68,0.752,1.68,1.68v6.722C29.833,69.414,29.082,70.167,28.153,70.167z"></path><rect width="13.445" height="6.723" x="71.847" y="68.486" fill="#a8ffa8"></rect><path fill="#04b46f" d="M85.292,76.889H71.847c-0.929,0-1.68-0.752-1.68-1.68v-6.723c0-0.928,0.751-1.68,1.68-1.68h13.445 c0.929,0,1.68,0.752,1.68,1.68v6.723C86.972,76.136,86.221,76.889,85.292,76.889z M73.528,73.528h10.083v-3.361H73.528V73.528z"></path><rect width="13.444" height="6.723" x="48.32" y="68.486" fill="#a8ffa8" transform="rotate(-180 55.042 71.847)"></rect><path fill="#04b46f" d="M61.764,76.889H48.32c-0.929,0-1.681-0.752-1.681-1.68v-6.723c0-0.928,0.752-1.68,1.681-1.68 h13.444c0.929,0,1.681,0.752,1.681,1.68v6.723C63.445,76.136,62.693,76.889,61.764,76.889z M50,73.528h10.083v-3.361H50V73.528z"></path><rect width="18.486" height="6.722" x="36.556" y="81.93" fill="#fff"></rect><path fill="#0ab5fd" d="M55.042,90.333H36.556c-0.929,0-1.681-0.753-1.681-1.681V81.93c0-0.928,0.752-1.681,1.681-1.681 h18.486c0.929,0,1.68,0.752,1.68,1.681v6.722C56.722,89.58,55.971,90.333,55.042,90.333z M38.236,86.972h15.125v-3.361H38.236 V86.972z"></path><rect width="20.167" height="6.722" x="68.486" y="81.93" fill="#fff" transform="rotate(-180 78.57 85.292)"></rect><path fill="#0db26f" d="M88.653,90.333H68.486c-0.929,0-1.68-0.753-1.68-1.681V81.93c0-0.928,0.751-1.681,1.68-1.681 h20.167c0.929,0,1.68,0.752,1.68,1.681v6.722C90.333,89.58,89.582,90.333,88.653,90.333z M70.167,86.972h16.805v-3.361H70.167 V86.972z"></path><rect width="16.806" height="6.722" x="11.347" y="81.93" fill="#fff" transform="rotate(-180 19.75 85.292)"></rect><path fill="#0ab5fd" d="M28.153,90.333H11.347c-0.929,0-1.68-0.753-1.68-1.681V81.93c0-0.928,0.751-1.681,1.68-1.681 h16.806c0.929,0,1.68,0.752,1.68,1.681v6.722C29.833,89.58,29.082,90.333,28.153,90.333z M13.028,86.972h13.444v-3.361H13.028 V86.972z"></path><rect width="15.125" height="6.723" x="21.431" y="68.486" fill="#92ebfd"></rect><path fill="#0ab5fd" d="M36.556,76.889H21.431c-0.929,0-1.681-0.752-1.681-1.68v-6.723c0-0.928,0.752-1.68,1.681-1.68 h15.125c0.929,0,1.68,0.752,1.68,1.68v6.723C38.236,76.136,37.485,76.889,36.556,76.889z M23.111,73.528h11.764v-3.361H23.111 V73.528z"></path><path fill="#d4bbf1" d="M60.083,36.556H39.917c-0.399,0-0.765-0.139-1.053-0.371c-0.383-0.308-0.628-0.78-0.628-1.31 v-5.041c0-0.458,0.183-0.872,0.479-1.175c0.305-0.312,0.731-0.506,1.202-0.506h20.166c0.447,0,0.852,0.174,1.153,0.458 c0.325,0.306,0.528,0.741,0.528,1.223v5.041c0,0.426-0.159,0.816-0.42,1.112C61.036,36.335,60.585,36.556,60.083,36.556z"></path><path fill="#943ece" d="M60.083,38.236H39.917c-1.853,0-3.361-1.507-3.361-3.361v-5.041c0-1.854,1.508-3.362,3.361-3.362 h20.166c1.853,0,3.361,1.508,3.361,3.362v5.041C63.445,36.729,61.936,38.236,60.083,38.236z M39.917,29.833v5.041h20.168 l-0.002-5.041H39.917z"></path><path fill="#d4bbf1" d="M60.083,28.153H39.917c-0.494,0-0.938-0.213-1.246-0.553c-0.271-0.298-0.435-0.694-0.435-1.128 v-5.041c0-0.438,0.168-0.838,0.443-1.137c0.307-0.334,0.748-0.544,1.238-0.544h20.166c0.464,0,0.884,0.188,1.189,0.492 c0.304,0.304,0.492,0.724,0.492,1.188v5.041c0,0.379-0.125,0.728-0.337,1.009C61.121,27.889,60.633,28.153,60.083,28.153z"></path><path fill="#943ece" d="M60.083,29.833H39.917c-1.853,0-3.361-1.508-3.361-3.362v-5.041c0-1.854,1.508-3.361,3.361-3.361 h20.166c1.853,0,3.361,1.507,3.361,3.361v5.041C63.445,28.326,61.936,29.833,60.083,29.833z M39.917,21.431v5.041h20.168 l-0.002-5.041H39.917z"></path><path fill="#d4bbf1" d="M60.083,19.75H39.917c-0.516,0-0.978-0.233-1.286-0.599c-0.246-0.292-0.394-0.669-0.394-1.081 v-5.042c0-0.37,0.12-0.712,0.322-0.99c0.306-0.418,0.8-0.691,1.358-0.691h20.166c0.464,0,0.884,0.188,1.189,0.492 c0.304,0.304,0.492,0.724,0.492,1.189v5.042c0,0.424-0.157,0.81-0.415,1.105C61.041,19.528,60.588,19.75,60.083,19.75z"></path><path fill="#943ece" d="M60.083,21.431H39.917c-1.853,0-3.361-1.507-3.361-3.361v-5.042c0-1.854,1.508-3.361,3.361-3.361 h20.166c1.853,0,3.361,1.508,3.361,3.361v5.042C63.445,19.923,61.936,21.431,60.083,21.431z M39.917,13.028v5.042h20.168 l-0.002-5.042H39.917z"></path><g><rect width="16.806" height="6.722" x="26.472" y="55.042" fill="#fff" transform="rotate(-180 34.875 58.403)"></rect><path fill="#0056d3" d="M43.278,63.444H26.472c-0.929,0-1.68-0.752-1.68-1.681v-6.722c0-0.928,0.751-1.681,1.68-1.681 h16.806c0.929,0,1.68,0.752,1.68,1.681v6.722C44.958,62.692,44.207,63.444,43.278,63.444z M28.153,60.083h13.444v-3.362H28.153 V60.083z"></path></g><g><rect width="16.805" height="6.722" x="58.403" y="55.042" fill="#95aef7" transform="rotate(-180 66.806 58.403)"></rect><path fill="#0056d1" d="M75.208,63.444H58.403c-0.929,0-1.681-0.752-1.681-1.681v-6.722c0-0.928,0.752-1.681,1.681-1.681 h16.805c0.929,0,1.681,0.752,1.681,1.681v6.722C76.889,62.692,76.137,63.444,75.208,63.444z M60.083,60.083h13.445v-3.362H60.083 V60.083z"></path></g><g><path fill="#0056d3" d="M50,48.319c-0.929,0-1.68-0.752-1.68-1.681v-3.361c0-0.928,0.751-1.681,1.68-1.681 s1.681,0.753,1.681,1.681v3.361C51.681,47.567,50.929,48.319,50,48.319z"></path></g>
</svg>