<svg xmlns="http://www.w3.org/2000/svg" x="0px" y="0px" width="64" height="64" viewBox="0 0 64 64">
<circle cx="59" cy="43" r="2" fill="#f6db40"></circle><circle cx="59" cy="34" r="2" fill="#f6db40"></circle><circle cx="5" cy="43" r="2" fill="#f6db40"></circle><circle cx="5" cy="34" r="2" fill="#f6db40"></circle><polygon fill="#8360f4" points="41,49 41,57 32,61 32,53"></polygon><polygon fill="#8360f4" points="32,53 32,61 23,57 23,49"></polygon><polygon fill="#db535b" points="32,45 41,49 32,53 23,49"></polygon><path fill="#f6db40" d="M28,38h-5.83c-2.09,0-3.95-1.53-4.15-3.61C18.01,34.26,18,34.13,18,34c0-1.1,0.45-2.1,1.17-2.83	C19.9,30.45,20.9,30,22,30c0.05,0,0.1,0.01,0.15,0.01c-0.29-1.09-0.29-2.3,1.31-3.87c0.71-0.71,1.64-1.16,2.64-1.14	c0.79,0.02,1.53,0.27,2.14,0.69C28.78,24.13,30.25,23,32,23s3.22,1.13,3.76,2.69c0.61-0.42,1.35-0.67,2.14-0.69	c1-0.02,1.93,0.43,2.64,1.14c1.6,1.57,1.6,2.78,1.31,3.87c0.05,0,0.1-0.01,0.15-0.01c1.1,0,2.1,0.45,2.83,1.17	C45.55,31.9,46,32.9,46,34c0,0.13-0.01,0.26-0.02,0.39c-0.2,2.08-2.06,3.61-4.15,3.61H41v6c-2.21,0-4-1.79-4-4v-2h-1h-4H28z"></path><polygon fill="#8360f4" points="61,9 55,9 55,3"></polygon><polygon fill="#8360f4" points="40,9 34,9 34,3"></polygon><polygon fill="#8360f4" points="19,9 13,9 13,3"></polygon><polygon fill="#6599ed" points="61,9 61,19 53,19 45,19 45,3 55,3 55,9"></polygon><polygon fill="#6599ed" points="40,9 40,19 32,19 24,19 24,3 34,3 34,9"></polygon><polygon fill="#6599ed" points="19,9 19,19 11,19 3,19 3,3 13,3 13,9"></polygon><path fill="#1a1a1a" d="M15,37c-0.265,0-0.52,0.105-0.707,0.293L9.586,42h-1.77C7.402,40.839,6.302,40,5,40	c-1.654,0-3,1.346-3,3s1.346,3,3,3c1.302,0,2.402-0.839,2.816-2H10c0.265,0,0.52-0.105,0.707-0.293L15.414,39H22v-0.016	C22.058,38.986,22.113,39,22.172,39H31v5.35l-8.406,3.736C22.233,48.247,22,48.605,22,49v8c0,0.395,0.233,0.753,0.594,0.914l9,4	C31.723,61.971,31.862,62,32,62s0.277-0.029,0.406-0.086l9-4C41.767,57.753,42,57.395,42,57v-8c0-0.395-0.233-0.753-0.594-0.914	L33,44.35V39h3v1c0,2.757,2.243,5,5,5c0.552,0,1-0.448,1-1v-5h6.586l4.707,4.707C53.48,43.895,53.735,44,54,44h2.184	c0.414,1.161,1.514,2,2.816,2c1.654,0,3-1.346,3-3s-1.346-3-3-3c-1.302,0-2.402,0.839-2.816,2h-1.77l-4.707-4.707	C49.52,37.105,49.265,37,49,37h-3.042c0.456-0.58,0.764-1.263,0.919-2h9.308c0.414,1.161,1.514,2,2.816,2c1.654,0,3-1.346,3-3	s-1.346-3-3-3c-1.302,0-2.402,0.839-2.816,2H46.87c-0.128-0.621-0.365-1.21-0.715-1.741l7.552-7.552C53.895,23.52,54,23.265,54,23	v-3h7c0.552,0,1-0.448,1-1V9c0-0.265-0.105-0.52-0.293-0.707l-6-6C55.52,2.105,55.265,2,55,2H45c-0.552,0-1,0.448-1,1v16	c0,0.552,0.448,1,1,1h7v2.586l-7.255,7.255c-0.532-0.351-1.12-0.611-1.745-0.739c0.026-1.035-0.332-2.273-1.753-3.678	c-0.958-0.946-2.166-1.466-3.37-1.422c-0.575,0.014-1.138,0.126-1.667,0.329c-0.724-1.146-1.887-1.944-3.21-2.218V20h7	c0.552,0,1-0.448,1-1V9c0-0.265-0.105-0.52-0.293-0.707l-6-6C34.52,2.105,34.265,2,34,2H24c-0.552,0-1,0.448-1,1v16	c0,0.552,0.448,1,1,1h7v2.112c-1.323,0.274-2.486,1.073-3.21,2.218c-0.529-0.203-1.092-0.315-1.667-0.329	c-1.203-0.028-2.412,0.476-3.369,1.422c-1.422,1.405-1.78,2.643-1.754,3.678c-0.626,0.128-1.213,0.388-1.745,0.739L12,22.586V20h7	c0.552,0,1-0.448,1-1V9c0-0.265-0.105-0.52-0.293-0.707l-6-6C13.52,2.105,13.265,2,13,2H3C2.448,2,2,2.448,2,3v16	c0,0.552,0.448,1,1,1h7v3c0,0.265,0.105,0.52,0.293,0.707l7.552,7.552c-0.35,0.531-0.587,1.12-0.715,1.741H7.816	C7.402,31.839,6.302,31,5,31c-1.654,0-3,1.346-3,3s1.346,3,3,3c1.302,0,2.402-0.839,2.816-2h9.308c0.155,0.736,0.463,1.42,0.919,2	H15z M5,44c-0.551,0-1-0.449-1-1s0.449-1,1-1s1,0.449,1,1S5.551,44,5,44z M24,50.539l7,3.111v5.812l-7-3.111V50.539z M33,59.461	V53.65l7-3.111v5.812L33,59.461z M38.538,49L32,51.906L25.462,49L31,46.539V49h2v-2.461L38.538,49z M59,42c0.551,0,1,0.449,1,1	s-0.449,1-1,1s-1-0.449-1-1S58.449,42,59,42z M56,5.414L58.586,8H56V5.414z M46,4h8v5c0,0.552,0.448,1,1,1h5v8H46V4z M35,5.414	L37.586,8H35V5.414z M25,4h8v5c0,0.552,0.448,1,1,1h5v8H25V4z M14,5.414L16.586,8H14V5.414z M4,4h8v5c0,0.552,0.448,1,1,1h5v8H4V4z M59,33c0.551,0,1,0.449,1,1s-0.449,1-1,1s-1-0.449-1-1S58.449,33,59,33z M21.938,30.998c0.034,0.005,0.134,0.015,0.168,0.016	c0.311,0.01,0.621-0.125,0.819-0.373c0.198-0.247,0.268-0.574,0.188-0.88c-0.199-0.755-0.281-1.602,1.046-2.914	c0.568-0.562,1.229-0.854,1.915-0.846c0.575,0.014,1.13,0.192,1.604,0.513c0.258,0.174,0.582,0.221,0.875,0.121	c0.295-0.097,0.527-0.326,0.63-0.619C29.605,24.81,30.737,24,32,24s2.395,0.81,2.817,2.016c0.103,0.293,0.335,0.522,0.63,0.619	c0.295,0.1,0.618,0.053,0.875-0.121c0.475-0.321,1.03-0.499,1.604-0.513c0.667,0.007,1.347,0.285,1.916,0.846	c1.327,1.312,1.245,2.159,1.046,2.914c-0.081,0.307-0.011,0.633,0.188,0.88c0.199,0.248,0.502,0.382,0.819,0.373	C41.951,31.012,42.006,31.005,42,31c0.843,0,1.652,0.358,2.22,0.982c0.576,0.633,0.848,1.456,0.766,2.315	C44.841,35.813,43.454,37,41.828,37H41c-0.552,0-1,0.448-1,1v4.829c-1.164-0.413-2-1.525-2-2.829v-2c0-0.552-0.448-1-1-1v-1.586	l1.707-1.707C38.895,33.52,39,33.265,39,33v-3h-2v2.586l-1.707,1.707C35.105,34.48,35,34.735,35,35v2h-2v-9h-2v9h-2v-2	c0-0.265-0.105-0.52-0.293-0.707L27,32.586V30h-2v3c0,0.265,0.105,0.52,0.293,0.707L27,35.414V37h-4.828	c-1.626,0-3.013-1.187-3.158-2.702c-0.082-0.86,0.19-1.683,0.766-2.316C20.348,31.358,21.157,31,21.938,30.998z M5,35	c-0.551,0-1-0.449-1-1s0.449-1,1-1s1,0.449,1,1S5.551,35,5,35z"></path><rect width="2" height="2" x="45" y="52" fill="#1a1a1a"></rect><rect width="2" height="2" x="49" y="52" fill="#1a1a1a"></rect><rect width="2" height="2" x="49" y="56" fill="#1a1a1a"></rect><rect width="2" height="2" x="49" y="48" fill="#1a1a1a"></rect><rect width="2" height="2" x="17" y="52" fill="#1a1a1a"></rect><rect width="2" height="2" x="13" y="52" fill="#1a1a1a"></rect><rect width="2" height="2" x="13" y="56" fill="#1a1a1a"></rect><rect width="2" height="2" x="13" y="48" fill="#1a1a1a"></rect>
</svg>