<svg xmlns="http://www.w3.org/2000/svg" x="0px" y="0px" width="32" height="32" viewBox="0 0 32 32">
<path d="M 3 2 C 2.4477539 2 2 2.4472656 2 3 L 2 29 C 2 29.552734 2.4477539 30 3 30 L 29 30 C 29.552246 30 30 29.552734 30 29 C 30 28.447266 29.552246 28 29 28 L 5.4140625 28 L 29.707031 3.7070312 C 30.097656 3.3164062 30.097656 2.6835938 29.707031 2.2929688 C 29.316406 1.9023438 28.683594 1.9023438 28.292969 2.2929688 L 4 26.585938 L 4 3 C 4 2.4472656 3.5522461 2 3 2 z M 18 3 A 3 3 0 0 0 18 9 A 3 3 0 0 0 18 3 z M 14 9 A 3 3 0 0 0 14 15 A 3 3 0 0 0 14 9 z M 26 11 A 3 3 0 0 0 26 17 A 3 3 0 0 0 26 11 z M 8 13 A 3 3 0 0 0 8 19 A 3 3 0 0 0 8 13 z M 20 15 A 3 3 0 0 0 20 21 A 3 3 0 0 0 20 15 z M 16 21 A 3 3 0 0 0 16 27 A 3 3 0 0 0 16 21 z"></path>
</svg>