<svg xmlns="http://www.w3.org/2000/svg" x="0px" y="0px" width="32" height="32" viewBox="0 0 32 32">
<path d="M 7 2 C 6.7 2 6.5007813 2.1007812 6.3007812 2.3007812 L 3.3007812 5.3007812 C 3.1007813 5.5007813 3 5.7 3 6 L 3 20 C 3 20.6 3.4 21 4 21 L 12.699219 21 C 13.199219 21.5 13.800391 21.799219 14.400391 22.199219 L 13.900391 22.699219 C 13.400391 22.299219 12.7 22 12 22 C 10.3 22 9 23.3 9 25 L 9 25.300781 L 7.6992188 25.699219 C 7.1992188 24.699219 6.2 24 5 24 C 3.3 24 2 25.3 2 27 C 2 28.7 3.3 30 5 30 C 6.4 30 7.6003906 29.000781 7.9003906 27.800781 L 9.9003906 27.099609 C 10.400391 27.699609 11.2 28 12 28 C 13.7 28 15 26.7 15 25 C 15 24.8 15.000391 24.6 14.900391 24.5 L 16.5 22.900391 C 17 23.000391 17.500391 23 17.900391 23 C 19.500391 23 20.999219 22.499219 22.199219 21.699219 L 23 22.5 C 22.8 22.9 22.799219 23.299219 23.199219 23.699219 L 25.800781 26.300781 C 26.300781 26.800781 26.9 27 27.5 27 C 28.1 27 28.799219 26.700781 29.199219 26.300781 C 30.099219 25.400781 30.099219 23.800391 29.199219 22.900391 L 26.699219 20.300781 C 26.399219 20.000781 25.9 19.899609 25.5 20.099609 L 24.699219 19.300781 C 25.499219 18.100781 26 16.6 26 15 C 26 13.4 25.499219 11.899219 24.699219 10.699219 L 24.800781 10.599609 L 26.599609 8 L 27 8 C 28.7 8 30 6.7 30 5 C 30 3.3 28.7 2 27 2 C 25.3 2 24 3.3 24 5 C 24 5.8 24.300781 6.5 24.800781 7 L 23.400391 9.0996094 C 22.000391 7.7996094 20.1 7 18 7 L 18 3 C 18 2.4 17.6 2 17 2 L 7 2 z M 9 4 L 16 4 L 16 7.3007812 C 14.8 7.6007812 13.699219 8.2 12.699219 9 L 7 9 C 6.4 9 6 9.4 6 10 C 6 10.6 6.4 11 7 11 L 11.099609 11 C 10.899609 11.3 10.699609 11.7 10.599609 12 L 7 12 C 6.4 12 6 12.4 6 13 C 6 13.6 6.4 14 7 14 L 10.099609 14 C 10.099609 14.3 10 14.7 10 15 L 7 15 C 6.4 15 6 15.4 6 16 C 6 16.6 6.4 17 7 17 L 10.300781 17 C 10.500781 17.7 10.799609 18.4 11.099609 19 L 5 19 L 5 8 L 8 8 C 8.6 8 9 7.6 9 7 L 9 4 z M 27 4 C 27.6 4 28 4.4 28 5 C 28 5.6 27.6 6 27 6 C 26.4 6 26 5.6 26 5 C 26 4.4 26.4 4 27 4 z M 7 4.4003906 L 7 6 L 5.4003906 6 L 7 4.4003906 z M 18 9 C 21.3 9 24 11.7 24 15 C 24 18.3 21.3 21 18 21 C 14.7 21 12 18.3 12 15 C 12 11.7 14.7 9 18 9 z M 20 12 C 19.75 12 19.500781 12.100781 19.300781 12.300781 L 17.599609 14 L 16 14 C 15.4 14 15 14.4 15 15 C 15 15.6 15.4 16 16 16 L 18 16 C 18.3 16 18.499219 15.899219 18.699219 15.699219 L 20.699219 13.699219 C 21.099219 13.299219 21.099219 12.700781 20.699219 12.300781 C 20.499219 12.100781 20.25 12 20 12 z M 26 22.400391 L 27.900391 24.300781 C 28.000391 24.500781 28.000391 24.700391 27.900391 24.900391 C 27.700391 25.100391 27.500781 25.100391 27.300781 24.900391 L 25.400391 23 L 26 22.400391 z M 12 24 C 12.6 24 13 24.4 13 25 C 13 25.6 12.6 26 12 26 C 11.4 26 11 25.6 11 25 C 11 24.4 11.4 24 12 24 z M 5 26 C 5.6 26 6 26.4 6 27 C 6 27.6 5.6 28 5 28 C 4.4 28 4 27.6 4 27 C 4 26.4 4.4 26 5 26 z"></path>
</svg>